<mxfile host="app.diagrams.net" modified="2023-06-07T03:23:21.814Z" agent="Mozilla/5.0 (Windows NT 10.0; Win64; x64) AppleWebKit/537.36 (KHTML, like Gecko) Chrome/114.0.0.0 Safari/537.36" etag="UcwI8GFB_p7D-5KkBn-z" version="21.3.7" type="github">
  <diagram id="C5RBs43oDa-KdzZeNtuy" name="Page-1">
    <mxGraphModel dx="1434" dy="764" grid="1" gridSize="10" guides="1" tooltips="1" connect="1" arrows="1" fold="1" page="1" pageScale="1" pageWidth="827" pageHeight="1169" math="0" shadow="0">
      <root>
        <mxCell id="WIyWlLk6GJQsqaUBKTNV-0" />
        <mxCell id="WIyWlLk6GJQsqaUBKTNV-1" parent="WIyWlLk6GJQsqaUBKTNV-0" />
        <mxCell id="m-WEodd0mMDCyx7VtcMW-85" value="" style="edgeStyle=orthogonalEdgeStyle;rounded=0;orthogonalLoop=1;jettySize=auto;html=1;" edge="1" parent="WIyWlLk6GJQsqaUBKTNV-1" source="m-WEodd0mMDCyx7VtcMW-18" target="m-WEodd0mMDCyx7VtcMW-62">
          <mxGeometry relative="1" as="geometry">
            <Array as="points">
              <mxPoint x="470" y="540" />
              <mxPoint x="470" y="540" />
            </Array>
          </mxGeometry>
        </mxCell>
        <mxCell id="m-WEodd0mMDCyx7VtcMW-56" value="" style="group" vertex="1" connectable="0" parent="WIyWlLk6GJQsqaUBKTNV-1">
          <mxGeometry x="220" y="550" width="150" height="160" as="geometry" />
        </mxCell>
        <mxCell id="m-WEodd0mMDCyx7VtcMW-51" value="" style="rounded=1;whiteSpace=wrap;html=1;fontSize=12;glass=0;strokeWidth=1;shadow=0;" vertex="1" parent="m-WEodd0mMDCyx7VtcMW-56">
          <mxGeometry width="150" height="129.52380952380952" as="geometry" />
        </mxCell>
        <mxCell id="m-WEodd0mMDCyx7VtcMW-153" value="" style="group" vertex="1" connectable="0" parent="m-WEodd0mMDCyx7VtcMW-56">
          <mxGeometry x="5" y="15.238095238095237" width="135" height="91.42857142857142" as="geometry" />
        </mxCell>
        <mxCell id="m-WEodd0mMDCyx7VtcMW-52" value="后端服务二进制包" style="rounded=1;whiteSpace=wrap;html=1;fontSize=12;glass=0;strokeWidth=1;shadow=0;" vertex="1" parent="m-WEodd0mMDCyx7VtcMW-153">
          <mxGeometry width="60" height="30.476190476190474" as="geometry" />
        </mxCell>
        <mxCell id="m-WEodd0mMDCyx7VtcMW-53" value="Redis" style="rounded=1;whiteSpace=wrap;html=1;fontSize=12;glass=0;strokeWidth=1;shadow=0;" vertex="1" parent="m-WEodd0mMDCyx7VtcMW-153">
          <mxGeometry x="75" width="60" height="30.476190476190474" as="geometry" />
        </mxCell>
        <mxCell id="m-WEodd0mMDCyx7VtcMW-54" value="MySQL" style="rounded=1;whiteSpace=wrap;html=1;fontSize=12;glass=0;strokeWidth=1;shadow=0;" vertex="1" parent="m-WEodd0mMDCyx7VtcMW-153">
          <mxGeometry y="57.14285714285714" width="60" height="30.476190476190474" as="geometry" />
        </mxCell>
        <mxCell id="m-WEodd0mMDCyx7VtcMW-55" value="MQ" style="rounded=1;whiteSpace=wrap;html=1;fontSize=12;glass=0;strokeWidth=1;shadow=0;" vertex="1" parent="m-WEodd0mMDCyx7VtcMW-153">
          <mxGeometry x="75" y="60.95238095238095" width="60" height="30.476190476190474" as="geometry" />
        </mxCell>
        <mxCell id="m-WEodd0mMDCyx7VtcMW-90" value="后端docker容器" style="text;strokeColor=none;align=center;fillColor=none;html=1;verticalAlign=middle;whiteSpace=wrap;rounded=0;" vertex="1" parent="m-WEodd0mMDCyx7VtcMW-153">
          <mxGeometry x="35" y="30.951904761904817" width="90" height="30" as="geometry" />
        </mxCell>
        <mxCell id="m-WEodd0mMDCyx7VtcMW-61" value="" style="group" vertex="1" connectable="0" parent="WIyWlLk6GJQsqaUBKTNV-1">
          <mxGeometry x="400" y="545" width="150" height="170" as="geometry" />
        </mxCell>
        <mxCell id="m-WEodd0mMDCyx7VtcMW-62" value="" style="rounded=1;whiteSpace=wrap;html=1;fontSize=12;glass=0;strokeWidth=1;shadow=0;" vertex="1" parent="m-WEodd0mMDCyx7VtcMW-61">
          <mxGeometry width="150" height="137.61904761904762" as="geometry" />
        </mxCell>
        <mxCell id="m-WEodd0mMDCyx7VtcMW-63" value="Node运行时" style="rounded=1;whiteSpace=wrap;html=1;fontSize=12;glass=0;strokeWidth=1;shadow=0;" vertex="1" parent="m-WEodd0mMDCyx7VtcMW-61">
          <mxGeometry x="5" y="16.19047619047619" width="59.99999999999999" height="32.38095238095238" as="geometry" />
        </mxCell>
        <mxCell id="m-WEodd0mMDCyx7VtcMW-64" value="Vuejs" style="rounded=1;whiteSpace=wrap;html=1;fontSize=12;glass=0;strokeWidth=1;shadow=0;" vertex="1" parent="m-WEodd0mMDCyx7VtcMW-61">
          <mxGeometry x="80" y="16.19047619047619" width="59.99999999999999" height="32.38095238095238" as="geometry" />
        </mxCell>
        <mxCell id="m-WEodd0mMDCyx7VtcMW-65" value="html+css" style="rounded=1;whiteSpace=wrap;html=1;fontSize=12;glass=0;strokeWidth=1;shadow=0;" vertex="1" parent="m-WEodd0mMDCyx7VtcMW-61">
          <mxGeometry x="5" y="76.90476190476191" width="59.99999999999999" height="32.38095238095238" as="geometry" />
        </mxCell>
        <mxCell id="m-WEodd0mMDCyx7VtcMW-66" value="MQ" style="rounded=1;whiteSpace=wrap;html=1;fontSize=12;glass=0;strokeWidth=1;shadow=0;" vertex="1" parent="m-WEodd0mMDCyx7VtcMW-61">
          <mxGeometry x="80" y="80.95238095238095" width="59.99999999999999" height="32.38095238095238" as="geometry" />
        </mxCell>
        <mxCell id="m-WEodd0mMDCyx7VtcMW-91" value="前端docker容器" style="text;strokeColor=none;align=center;fillColor=none;html=1;verticalAlign=middle;whiteSpace=wrap;rounded=0;" vertex="1" parent="m-WEodd0mMDCyx7VtcMW-61">
          <mxGeometry x="30" y="48.569999999999936" width="90" height="30" as="geometry" />
        </mxCell>
        <mxCell id="m-WEodd0mMDCyx7VtcMW-86" value="" style="group" vertex="1" connectable="0" parent="WIyWlLk6GJQsqaUBKTNV-1">
          <mxGeometry x="260" y="100" width="270" height="390" as="geometry" />
        </mxCell>
        <mxCell id="WIyWlLk6GJQsqaUBKTNV-7" value="公网DNS解析" style="rounded=1;whiteSpace=wrap;html=1;fontSize=12;glass=0;strokeWidth=1;shadow=0;" parent="m-WEodd0mMDCyx7VtcMW-86" vertex="1">
          <mxGeometry x="80" y="100" width="120" height="40" as="geometry" />
        </mxCell>
        <mxCell id="WIyWlLk6GJQsqaUBKTNV-12" value="云服务器物理机" style="rounded=1;whiteSpace=wrap;html=1;fontSize=12;glass=0;strokeWidth=1;shadow=0;" parent="m-WEodd0mMDCyx7VtcMW-86" vertex="1">
          <mxGeometry x="80" y="190" width="120" height="40" as="geometry" />
        </mxCell>
        <mxCell id="m-WEodd0mMDCyx7VtcMW-1" value="" style="edgeStyle=orthogonalEdgeStyle;rounded=0;orthogonalLoop=1;jettySize=auto;html=1;" edge="1" parent="m-WEodd0mMDCyx7VtcMW-86" source="WIyWlLk6GJQsqaUBKTNV-7" target="WIyWlLk6GJQsqaUBKTNV-12">
          <mxGeometry relative="1" as="geometry" />
        </mxCell>
        <mxCell id="m-WEodd0mMDCyx7VtcMW-3" value="Nginx" style="rounded=1;whiteSpace=wrap;html=1;fontSize=12;glass=0;strokeWidth=1;shadow=0;" vertex="1" parent="m-WEodd0mMDCyx7VtcMW-86">
          <mxGeometry x="80" y="270" width="120" height="40" as="geometry" />
        </mxCell>
        <mxCell id="m-WEodd0mMDCyx7VtcMW-4" value="" style="edgeStyle=orthogonalEdgeStyle;rounded=0;orthogonalLoop=1;jettySize=auto;html=1;" edge="1" parent="m-WEodd0mMDCyx7VtcMW-86" source="WIyWlLk6GJQsqaUBKTNV-12" target="m-WEodd0mMDCyx7VtcMW-3">
          <mxGeometry relative="1" as="geometry" />
        </mxCell>
        <mxCell id="m-WEodd0mMDCyx7VtcMW-11" value="" style="edgeStyle=orthogonalEdgeStyle;rounded=0;orthogonalLoop=1;jettySize=auto;html=1;" edge="1" parent="m-WEodd0mMDCyx7VtcMW-86" source="m-WEodd0mMDCyx7VtcMW-8" target="WIyWlLk6GJQsqaUBKTNV-7">
          <mxGeometry relative="1" as="geometry" />
        </mxCell>
        <mxCell id="m-WEodd0mMDCyx7VtcMW-8" value="http请求" style="rounded=1;whiteSpace=wrap;html=1;fontSize=12;glass=0;strokeWidth=1;shadow=0;" vertex="1" parent="m-WEodd0mMDCyx7VtcMW-86">
          <mxGeometry x="80" width="120" height="40" as="geometry" />
        </mxCell>
        <mxCell id="m-WEodd0mMDCyx7VtcMW-17" value="后端 proxy_pass端口转发" style="rounded=1;whiteSpace=wrap;html=1;fontSize=12;glass=0;strokeWidth=1;shadow=0;" vertex="1" parent="m-WEodd0mMDCyx7VtcMW-86">
          <mxGeometry y="350" width="120" height="40" as="geometry" />
        </mxCell>
        <mxCell id="m-WEodd0mMDCyx7VtcMW-24" value="" style="edgeStyle=orthogonalEdgeStyle;rounded=0;orthogonalLoop=1;jettySize=auto;html=1;" edge="1" parent="m-WEodd0mMDCyx7VtcMW-86" source="m-WEodd0mMDCyx7VtcMW-3" target="m-WEodd0mMDCyx7VtcMW-17">
          <mxGeometry relative="1" as="geometry" />
        </mxCell>
        <mxCell id="m-WEodd0mMDCyx7VtcMW-18" value="前端proxy_pass端口转发" style="rounded=1;whiteSpace=wrap;html=1;fontSize=12;glass=0;strokeWidth=1;shadow=0;" vertex="1" parent="m-WEodd0mMDCyx7VtcMW-86">
          <mxGeometry x="150" y="350" width="120" height="40" as="geometry" />
        </mxCell>
        <mxCell id="m-WEodd0mMDCyx7VtcMW-20" value="" style="edgeStyle=orthogonalEdgeStyle;rounded=0;orthogonalLoop=1;jettySize=auto;html=1;" edge="1" parent="m-WEodd0mMDCyx7VtcMW-86" source="m-WEodd0mMDCyx7VtcMW-3" target="m-WEodd0mMDCyx7VtcMW-18">
          <mxGeometry relative="1" as="geometry" />
        </mxCell>
        <mxCell id="m-WEodd0mMDCyx7VtcMW-21" value="" style="edgeStyle=orthogonalEdgeStyle;rounded=0;orthogonalLoop=1;jettySize=auto;html=1;" edge="1" parent="m-WEodd0mMDCyx7VtcMW-86" source="m-WEodd0mMDCyx7VtcMW-3" target="m-WEodd0mMDCyx7VtcMW-18">
          <mxGeometry relative="1" as="geometry" />
        </mxCell>
        <mxCell id="m-WEodd0mMDCyx7VtcMW-22" value="" style="edgeStyle=orthogonalEdgeStyle;rounded=0;orthogonalLoop=1;jettySize=auto;html=1;" edge="1" parent="m-WEodd0mMDCyx7VtcMW-86" source="m-WEodd0mMDCyx7VtcMW-3" target="m-WEodd0mMDCyx7VtcMW-18">
          <mxGeometry relative="1" as="geometry" />
        </mxCell>
        <mxCell id="m-WEodd0mMDCyx7VtcMW-23" value="" style="edgeStyle=orthogonalEdgeStyle;rounded=0;orthogonalLoop=1;jettySize=auto;html=1;" edge="1" parent="m-WEodd0mMDCyx7VtcMW-86" source="m-WEodd0mMDCyx7VtcMW-3" target="m-WEodd0mMDCyx7VtcMW-18">
          <mxGeometry relative="1" as="geometry" />
        </mxCell>
        <mxCell id="m-WEodd0mMDCyx7VtcMW-19" style="edgeStyle=orthogonalEdgeStyle;rounded=0;orthogonalLoop=1;jettySize=auto;html=1;exitX=0.5;exitY=1;exitDx=0;exitDy=0;" edge="1" parent="m-WEodd0mMDCyx7VtcMW-86" source="m-WEodd0mMDCyx7VtcMW-17" target="m-WEodd0mMDCyx7VtcMW-17">
          <mxGeometry relative="1" as="geometry" />
        </mxCell>
        <mxCell id="m-WEodd0mMDCyx7VtcMW-89" value="" style="endArrow=classic;html=1;rounded=0;" edge="1" parent="WIyWlLk6GJQsqaUBKTNV-1">
          <mxGeometry width="50" height="50" relative="1" as="geometry">
            <mxPoint x="320" y="490" as="sourcePoint" />
            <mxPoint x="320" y="550" as="targetPoint" />
          </mxGeometry>
        </mxCell>
      </root>
    </mxGraphModel>
  </diagram>
</mxfile>
